# xmcd
#
# Track frame offsets:
# 150
# 10250
# 22785
# 35735
# 49280
# 60655
# 72930
# 87303
# 97063
# 110725
# 123695
# 135808
# 147380
# 163123
# 174295
# 185865
# 201570
# 212308
#
# Disc length: 2998 seconds
#
#
# Revision: 9
# Processed by: cddbd v1.5.2PL0 Copyright (c) Steve Scherf et al.
# Submitted via: FreeRIP 2.60 
#
DISCID=0a0bb412
DTITLE=John Lee Hooker STREETS IS FILLED WITH WOMEN - Jazz and Blues Collection
DYEAR=1995
DGENRE=Blues
TTITLE0=COME BACK BABY
TTITLE1=FORGIVE ME
TTITLE2=STREETS IS FILLED WITH WOMEN
TTITLE3=WHISTLE DOWN BLOWN
TTITLE4=TURNIN GRAY BLUES
TTITLE5=SHE WAS IN CHICAGO
TTITLE6=LORD TAKETH MY BABY AWAY
TTITLE7=JUST LIKE A WOMAN
TTITLE8=THROW THIS OLD DOG A BONE
TTITLE9=JOHNNY LEE'S MOOD
TTITLE10=MISS ELOISE
TTITLE11=CRYING ALL NIGHT
TTITLE12=WELFARE BLUES
TTITLE13=JOHNNY LEE'S ORIGINAL BOOGIE
TTITLE14=SHE LEFT ME BY MYSELF
TTITLE15=OUT THE DOOR I WENT
TTITLE16=MY BABY SHE' LONG AND TALL
TTITLE17=She shot me down
EXTD=YEAR: 1959
EXTT0=
EXTT1=
EXTT2=
EXTT3=
EXTT4=
EXTT5=
EXTT6=
EXTT7=
EXTT8=
EXTT9=
EXTT10=
EXTT11=
EXTT12=
EXTT13=
EXTT14=
EXTT15=
EXTT16=
EXTT17=
PLAYORDER=
